<?xml version="1.0" encoding="iso-8859-1"?>
<!-- Uploaded to: SVG Repo, www.svgrepo.com, Generator: SVG Repo Mixer Tools -->
<svg height="800px" width="800px" version="1.1" id="Layer_1" xmlns="http://www.w3.org/2000/svg" xmlns:xlink="http://www.w3.org/1999/xlink" 
	 viewBox="0 0 512 512" xml:space="preserve">
<path style="fill:#FFDA44;" d="M256,440.558c-121.463,0-220.279-98.816-220.279-220.279S134.537,0,256,0
	s220.279,98.816,220.279,220.279S377.463,440.558,256,440.558z M256,35.721c-101.765,0-184.558,82.793-184.558,184.558
	S154.235,404.837,256,404.837s184.558-82.793,184.558-184.558S357.765,35.721,256,35.721z"/>
<path style="fill:#FFAD41;" d="M256,0v35.721c101.765,0,184.558,82.793,184.558,184.558S357.765,404.837,256,404.837v35.721
	c121.463,0,220.279-98.816,220.279-220.279S377.463,0,256,0z"/>
<path style="fill:#FFE6C6;" d="M298.865,494.14h-85.73c-55.01,0-100.019-45.008-100.019-100.019V220.279
	c0-55.009,45.008-100.019,100.019-100.019h85.73c55.01,0,100.019,45.01,100.019,100.019v173.842
	C398.884,449.131,353.875,494.14,298.865,494.14z"/>
<circle style="fill:#50412E;" cx="190.512" cy="309.581" r="17.86"/>
<path style="fill:#FFD6A0;" d="M298.865,120.26H256V494.14h42.865c55.01,0,100.019-45.008,100.019-100.019V220.279
	C398.884,165.269,353.875,120.26,298.865,120.26z"/>
<circle style="fill:#50412E;" cx="321.488" cy="309.581" r="17.86"/>
<path style="fill:#A0815C;" d="M298.865,102.4h-85.73c-64.999,0-117.879,52.88-117.879,117.879v173.842
	C95.256,459.12,148.136,512,213.135,512h85.73c64.999,0,117.879-52.88,117.879-117.879V220.279
	C416.744,155.28,363.864,102.4,298.865,102.4z M332.482,378.556c-12.644-17.519-33.222-28.491-55.32-28.491h-42.326
	c-22.098,0-42.676,10.972-55.32,28.491c-29.141-13.104-48.54-42.247-48.54-74.928v-53.581h20.512
	c44.201,0,83.002-23.557,104.511-58.774c21.509,35.217,60.31,58.774,104.511,58.774h20.512v53.581
	C381.023,336.309,361.624,365.453,332.482,378.556z"/>
<path style="fill:#786145;" d="M298.865,102.4H256v88.872c21.509,35.217,60.31,58.774,104.511,58.774h20.512v53.581
	c0,32.681-19.399,61.825-48.541,74.928c-12.644-17.519-33.222-28.491-55.32-28.491H256V512h42.865
	c64.999,0,117.879-52.88,117.879-117.879V220.279C416.744,155.28,363.864,102.4,298.865,102.4z"/>
<path style="fill:#FFE6C6;" d="M285.767,416.744c0,16.44-13.327,29.767-29.767,29.767c-16.441,0-29.767-13.327-29.767-29.767"/>
</svg>